# xmcd CD database file
#
# Track frame offsets:
#	150
#	56558
#	81894
#	145129
#	191517
#
# Disc length: 3177 seconds
#
# Revision: 1
# Processed by: cddbd v1.5.1PL0 Copyright (c) Steve Scherf et al.
# Submitted via: CDex 1.51
#
DISCID=3e0c6705
DTITLE=George Benson - Selection Of George Benson de Luxe CD2
DYEAR=1998
DGENRE=Jazz
TTITLE0=Blue Bossa
TTITLE1=Witchcraft
TTITLE2=All the things you are
TTITLE3=Dahlin's delight
TTITLE4=(I'm afraid) the masquerade is over
EXTD=YEAR: 1998
EXTT0=
EXTT1=
EXTT2=
EXTT3=
EXTT4=
PLAYORDER=
